<?xml version="1.0" encoding="utf-8"?>
<!-- Generator: Adobe Illustrator 21.0.0, SVG Export Plug-In . SVG Version: 6.00 Build 0)  -->
<svg version="1.1" id="Шар_1" xmlns="http://www.w3.org/2000/svg" xmlns:xlink="http://www.w3.org/1999/xlink" x="0px" y="0px"
	 viewBox="0 0 396.9 396.9" style="enable-background:new 0 0 396.9 396.9;" xml:space="preserve">
<style type="text/css">
	.st0{fill:#FFFFFF;}
	.st1{fill:#020203;}
</style>
<g>
	
		<image style="overflow:visible;opacity:0.4;" width="1938" height="1938" xlink:href="521976F7F4BAF2CF.png"  transform="matrix(0.24 0 0 0.24 -34.0157 -27.0557)">
	</image>
	<g>
		<path class="st0" d="M339.8,396.9H57c-31.5,0-57-25.5-57-57V0h396.9v339.8C396.9,371.3,371.3,396.9,339.8,396.9z"/>
	</g>
</g>
<g id="XMLID_1_">
	<g id="XMLID_2_">
		<g id="XMLID_66_">
			<path id="XMLID_64_" class="st1" d="M60.2,308.4c0,10.8-9.5,19.7-21.1,19.7s-21.1-8.9-21.1-19.7c0-10.8,9.5-19.7,21.1-19.7
				S60.2,297.7,60.2,308.4z M58.2,308.4c0-9.8-8.5-17.7-19.1-17.7S20,298.6,20,308.4c0,9.8,8.5,17.7,19.1,17.7
				S58.2,318.3,58.2,308.4z"/>
			<path id="XMLID_88_" class="st1" d="M39.1,328.3c-11.8,0-21.3-8.9-21.3-19.8c0-10.9,9.5-19.8,21.3-19.8s21.3,8.9,21.3,19.8
				C60.5,319.4,50.9,328.3,39.1,328.3z M39.1,289.1c-11.5,0-20.9,8.7-20.9,19.4s9.4,19.4,20.9,19.4s20.9-8.7,20.9-19.4
				C60,297.8,50.7,289.1,39.1,289.1z M39.1,326.4c-10.7,0-19.4-8.1-19.4-18c0-9.9,8.7-18,19.4-18s19.3,8.1,19.3,18
				C58.4,318.4,49.7,326.4,39.1,326.4z M39.1,290.9c-10.4,0-18.9,7.9-18.9,17.5c0,9.6,8.4,17.5,18.9,17.5c10.4,0,18.8-7.9,18.8-17.5
				C57.9,298.8,49.5,290.9,39.1,290.9z"/>
		</g>
		<g id="XMLID_63_">
			<path id="XMLID_53_" class="st1" d="M82.9,312.1l9.7,14.9h-2.5l-9.7-14.7H68.4V327h-1.9v-37H81c6.6,0,12,5,12,11.1
				C92.9,306.6,88.6,311.2,82.9,312.1z M91,301.1c0-5.1-4.5-9.4-10-9.4H68.4v18.7H81C86.5,310.4,91,306.2,91,301.1z"/>
			<path id="XMLID_82_" class="st1" d="M93,327.2H90l-0.1-0.1l-9.6-14.6H68.6v14.7h-2.3v-37.5H81c6.7,0,12.1,5.1,12.1,11.3
				c0,5.5-4.1,10.1-9.8,11.1L93,327.2z M90.3,326.7h1.9l-9.7-14.8l0.4-0.1c5.7-0.8,9.8-5.4,9.8-10.8c0-6-5.3-10.8-11.7-10.8H66.7
				v36.5h1.4V312h12.4l0.1,0.1L90.3,326.7z M81,310.7H68.1v-19.2h12.8c5.7,0,10.3,4.3,10.3,9.5C91.2,306.3,86.6,310.7,81,310.7z
				 M68.6,310.2h12.3c5.4,0,9.8-4.1,9.8-9.1s-4.4-9.1-9.8-9.1H68.6V310.2z"/>
		</g>
		<g id="XMLID_52_">
			<path id="XMLID_51_" class="st1" d="M125.9,291.9h-14.4v35h-2v-35H95.2V290h30.8V291.9z"/>
			<path id="XMLID_77_" class="st1" d="M111.9,327.2h-2.6v-35H95v-2.4h31.2v2.4h-14.4V327.2z M109.7,326.7h1.7v-35h14.4v-1.5H95.4
				v1.5h14.4L109.7,326.7L109.7,326.7z"/>
		</g>
		<g id="XMLID_50_">
			<path id="XMLID_48_" class="st1" d="M159.4,289.9V327h-2.1v-17.5h-23.5V327h-2.1v-37.1h2.1v17.5h23.5v-17.5H159.4z"/>
			<path id="XMLID_73_" class="st1" d="M159.7,327.2h-2.6v-17.5h-23v17.5h-2.6v-37.5h2.6v17.5h23v-17.5h2.6V327.2z M157.6,326.7h1.7
				v-36.6h-1.7v17.5h-23.9v-17.5H132v36.6h1.7v-17.5h23.9V326.7z"/>
		</g>
		<g id="XMLID_47_">
			<path id="XMLID_31_" class="st1" d="M207.9,308.4c0,10.8-9.5,19.7-21.1,19.7c-11.6,0-21.1-8.9-21.1-19.7
				c0-10.8,9.5-19.7,21.1-19.7C198.4,288.8,207.9,297.7,207.9,308.4z M205.9,308.4c0-9.8-8.5-17.7-19.1-17.7
				c-10.6,0-19.1,7.9-19.1,17.7c0,9.8,8.5,17.7,19.1,17.7C197.3,326.1,205.9,318.3,205.9,308.4z"/>
			<path id="XMLID_37_" class="st1" d="M186.9,328.3c-11.8,0-21.3-8.9-21.3-19.8c0-10.9,9.5-19.8,21.3-19.8s21.3,8.9,21.3,19.8
				S198.6,328.3,186.9,328.3z M186.9,289.1c-11.5,0-20.9,8.7-20.9,19.4s9.4,19.4,20.9,19.4s20.9-8.7,20.9-19.4
				S198.3,289.1,186.9,289.1z M186.9,326.4c-10.7,0-19.4-8.1-19.4-18c0-9.9,8.7-18,19.4-18c10.7,0,19.3,8.1,19.3,18
				C206.1,318.4,197.4,326.4,186.9,326.4z M186.9,290.9c-10.4,0-18.9,7.9-18.9,17.5c0,9.6,8.4,17.5,18.9,17.5
				c10.4,0,18.8-7.9,18.8-17.5C205.7,298.8,197.1,290.9,186.9,290.9z"/>
		</g>
		<g id="XMLID_36_">
			<path id="XMLID_25_" class="st1" d="M240.6,317.9c-0.1,3.1-1.7,5.7-4.3,7.5c-2.6,1.8-5.9,2.7-9.7,2.7c-0.2,0-0.5,0-0.6-0.1
				c-4.2-0.1-7.7-1.3-10.3-3.5c-2-1.8-3.4-4.3-3.8-7v-0.1l2,0.1h0.1l0.1,0.1v0.1c0.6,4.1,4.3,8.4,12.1,8.6c3.6,0.1,6.7-0.6,8.9-2.1
				c2.3-1.6,3.5-3.7,3.5-6.2c0.2-6.2-6.5-8.2-12-9.6c-0.6-0.1-1.1-0.3-1.7-0.5l-0.6-0.2c-4.5-1.3-11.4-3.3-11.2-9.5
				c0.2-5.7,5.9-9.5,13.9-9.4c5.9,0.2,10.7,3,12.6,7.5v0.1l-1.9,0.6V297c-1.7-3.7-5.7-6.1-10.8-6.3c-3.4-0.1-6.4,0.6-8.4,1.9
				c-2.2,1.5-3.2,3.4-3.3,5.7c-0.2,4.8,6,6.6,11.5,8.2l0.6,0.2C232.7,308,240.9,310.3,240.6,317.9z"/>
			<path id="XMLID_27_" class="st1" d="M226.6,328.3c-0.3,0-0.5,0-0.7-0.1c-4.2-0.1-7.7-1.3-10.4-3.6c-2.1-1.8-3.5-4.4-3.9-7.1v-0.4
				l2.3,0.1l0.2,0.1l0.1,0.1v0.1c0.6,4,4.2,8.3,11.9,8.4c3.5,0.1,6.6-0.6,8.7-2.1c2.2-1.5,3.4-3.6,3.4-6c0.2-6.1-6.7-8-11.8-9.4
				c-0.5-0.1-0.9-0.2-1.4-0.4l-0.9-0.3c-4.5-1.4-11.5-3.3-11.2-9.7c0.2-5.8,6-9.7,14.2-9.5c6,0.2,10.8,3.1,12.8,7.6v0.1v0.3
				l-2.4,0.8v-0.4c-1.7-3.7-5.6-5.9-10.5-6.1c-3.4-0.1-6.3,0.6-8.3,1.9c-2,1.4-3.2,3.2-3.2,5.5c-0.2,4.7,5.9,6.4,11.4,8l0.6,0.2
				c5.4,1.5,13.5,3.8,13.3,11.6l0,0c-0.1,3.1-1.7,5.8-4.4,7.7C233.9,327.4,230.4,328.3,226.6,328.3z M212.1,317.6
				c0.5,2.6,1.8,5,3.7,6.7c2.6,2.1,6,3.3,10.1,3.4c0.3,0.1,0.5,0.1,0.6,0.1c3.7,0,7-0.9,9.5-2.6c2.6-1.8,4.1-4.4,4.2-7.3
				c0.3-7.4-7.7-9.6-13-11.1l-0.6-0.2c-5.6-1.6-11.9-3.3-11.7-8.4c0.1-2.4,1.2-4.4,3.4-5.8c2-1.3,5-2,8.5-1.9
				c5.1,0.2,9.2,2.5,10.9,6.3l1.5-0.5c-1.9-4.3-6.6-7-12.3-7.2c-0.2,0-0.5,0-0.6,0c-7.6,0-12.9,3.7-13.1,9.1
				c-0.2,5.9,6.5,8,10.9,9.3l0.9,0.3c0.5,0.1,0.8,0.3,1.3,0.4c5.2,1.4,12.3,3.4,12.1,9.8c-0.1,2.6-1.3,4.8-3.6,6.4
				c-2.3,1.5-5.4,2.3-9,2.1c-7.9-0.2-11.5-4.6-12.2-8.7H212.1z"/>
		</g>
		<g id="XMLID_34_">
			<path id="XMLID_20_" class="st1" d="M273.1,291.9h-14.4v35h-2.1v-35h-14.4V290H273L273.1,291.9L273.1,291.9z"/>
			<path id="XMLID_22_" class="st1" d="M259,327.2h-2.6v-35H242v-2.4h31.2v2.4h-14.4L259,327.2L259,327.2z M256.8,326.7h1.7v-35
				h14.4v-1.5h-30.3v1.5h14.4L256.8,326.7L256.8,326.7z"/>
		</g>
		<g id="XMLID_32_">
			<path id="XMLID_12_" class="st1" d="M295.1,308.7V327H293v-18.3l-15.3-18.8h2.6l13.8,17l13.8-17h2.5L295.1,308.7z"/>
			<path id="XMLID_15_" class="st1" d="M295.3,327.2h-2.6v-18.4l-15.6-19.1h3.2l13.6,16.9l13.7-16.9h3.2l-15.5,19.1V327.2z
				 M293.2,326.7h1.7v-18.1l15-18.4h-1.9L294,307.3l-13.9-17.1h-1.9l15.1,18.4L293.2,326.7L293.2,326.7z"/>
		</g>
		<g id="XMLID_30_">
			<path id="XMLID_7_" class="st1" d="M341,324.9v1.9h-24.9v-37.1h2.1v35L341,324.9L341,324.9z"/>
			<path id="XMLID_9_" class="st1" d="M341.3,327.2h-25.4v-37.5h2.6v35h22.8V327.2z M316.4,326.7h24.5v-1.5H318v-35h-1.7V326.7z"/>
		</g>
		<g id="XMLID_17_">
			<path id="XMLID_4_" class="st1" d="M372.8,291.8H350v15.7h19.9v1.9H350v15.7h22.8v1.9H348v-36.9h24.8V291.8z"/>
			<path id="XMLID_6_" class="st1" d="M373.1,327.2h-25.3v-37.4h25.3v2.3h-22.8v15.2h19.9v2.4h-19.9v15.2h22.8V327.2z M348.2,326.7
				h24.4v-1.4h-22.8v-16.1h19.9v-1.5h-19.9v-16.1h22.8v-1.4h-24.4V326.7z"/>
		</g>
	</g>
	<g id="XMLID_59_">
		<path id="XMLID_60_" class="st1" d="M300.4,151.6c0,41.7-25.5,79-64.3,94c-39,15-82.7,4.3-111.1-26.1
			C110.4,204.1,98,187.7,93,166.6c-16-68,44.2-130.5,112.6-116.5c12.2,2.4,24.8,4.9,36.1,9.8C277.9,75.7,300.5,111.8,300.4,151.6z
			 M182.5,233.7c41.4-2,69.4-18.6,84.8-52.6c15.6-34.2,10.2-66.9-14.4-95.4c-14.7-17-33-28.6-57-27.7c-51.2,1.8-91.8,45.2-89.7,96.4
			c1.4,34.8,16.5,62,49.4,73.2C165.6,230.8,176.1,232.2,182.5,233.7z M171.1,240c44.6,14.5,92.5-5.8,112.8-47.4
			c20.8-42.6,5.5-90.5-25.8-113.4c13.8,15.7,22.2,34.1,24.3,54.9c2.3,21.2-1.7,41.4-13,59.4C246.4,229.7,213.1,244.1,171.1,240z
			 M133.8,74.3c-22.5,13.6-39.9,50.6-34.8,72.9C100.8,118,112.4,93.9,133.8,74.3z"/>
		<path id="XMLID_94_" class="st1" d="M191.1,216c-39.6,0.2-71.7-31.9-71.7-71.5s31.9-71.8,71.5-71.8c39.4,0,71.7,32.1,71.7,71.7
			S230.7,215.8,191.1,216z M199.5,83.5c-27.8,0.2-50.7,23.2-50.4,50.7c0.3,27.7,23.4,50.6,50.9,50.4c27.7-0.2,50.4-23.2,50.3-50.9
			C250.1,105.9,227.3,83.3,199.5,83.5z M169.7,83.9c-29.8,10.4-47.7,41.6-42.2,71.2c6,31.8,33.2,54.3,64.8,53.3
			c30.3-0.8,57.6-23.7,61.3-52.3c-14.5,26.9-36.1,39.6-65.6,33.9c-23.2-4.4-38.7-19.3-44.2-42.5C137.5,121.7,146.9,100.9,169.7,83.9
			z"/>
	</g>
</g>
</svg>
